<?xml version="1.0" encoding="UTF-8" standalone="no"?><svg xmlns="http://www.w3.org/2000/svg" xmlns:xlink="http://www.w3.org/1999/xlink" contentScriptType="application/ecmascript" contentStyleType="text/css" height="671px" preserveAspectRatio="none" style="width:915px;height:671px;" version="1.1" viewBox="0 0 915 671" width="915px" zoomAndPan="magnify"><defs/><g><ellipse cx="325.1274" cy="185.242" fill="#F8F8F8" rx="25.6274" ry="13.242" style="stroke: #383838; stroke-width: 0.5;"/><text fill="#000000" font-family="Tahoma, sans-serif" font-size="12" font-weight="bold" lengthAdjust="spacingAndGlyphs" textLength="32" x="309.1274" y="188.9842">build</text><ellipse cx="324.8344" cy="230.1669" fill="#F8F8F8" rx="58.8344" ry="14.1669" style="stroke: #383838; stroke-width: 0.5;"/><text fill="#000000" font-family="Tahoma, sans-serif" font-size="12" font-weight="bold" lengthAdjust="spacingAndGlyphs" textLength="85" x="282.3344" y="233.9091">build/index.d</text><ellipse cx="675.189" cy="271.8378" fill="#F8F8F8" rx="67.189" ry="15.8378" style="stroke: #383838; stroke-width: 0.5;"/><text fill="#000000" font-family="Tahoma, sans-serif" font-size="12" lengthAdjust="spacingAndGlyphs" textLength="106" x="622.189" y="275.58">errors/SpruceError</text><!--MD5=[0df72be079b7be722000360c8a62aa36]
entity _errors_SpruceError--><rect fill="#F8F8F8" height="34.4844" rx="3" ry="3" style="stroke: #000000; stroke-width: 0.5;" width="126" x="778" y="504"/><text fill="#000000" font-family="Tahoma, sans-serif" font-size="12" lengthAdjust="spacingAndGlyphs" textLength="106" x="788" y="526.0059">errors/SpruceError</text><!--MD5=[8f883dc3c2ef28ef82b5a7d9e72891d4]
entity _errors_SpruceError_d--><rect fill="#F8F8F8" height="34.4844" rx="3" ry="3" style="stroke: #000000; stroke-width: 0.5;" width="156" x="20" y="12"/><text fill="#000000" font-family="Tahoma, sans-serif" font-size="12" font-weight="bold" lengthAdjust="spacingAndGlyphs" textLength="136" x="30" y="34.0059">errors/SpruceError.d</text><ellipse cx="324.799" cy="457.242" fill="#F8F8F8" rx="22.799" ry="13.242" style="stroke: #383838; stroke-width: 0.5;"/><text fill="#000000" font-family="Tahoma, sans-serif" font-size="12" font-weight="bold" lengthAdjust="spacingAndGlyphs" textLength="28" x="310.799" y="460.9842">esm</text><ellipse cx="324.8275" cy="501.8655" fill="#F8F8F8" rx="57.3275" ry="13.8655" style="stroke: #383838; stroke-width: 0.5;"/><text fill="#000000" font-family="Tahoma, sans-serif" font-size="12" font-weight="bold" lengthAdjust="spacingAndGlyphs" textLength="81" x="284.3275" y="505.6077">esm/index.d</text><ellipse cx="98.2284" cy="78.9457" fill="#F8F8F8" rx="62.7284" ry="14.9457" style="stroke: #383838; stroke-width: 0.5;"/><text fill="#000000" font-family="Tahoma, sans-serif" font-size="12" font-weight="bold" lengthAdjust="spacingAndGlyphs" textLength="95" x="50.7284" y="82.6879">release.config</text><!--MD5=[cf3a54b262e66b8fc2ca44c6da996c9f]
entity _skills_Skill--><rect fill="#F8F8F8" height="34.4844" rx="3" ry="3" style="stroke: #000000; stroke-width: 0.5;" width="77" x="636.5" y="504"/><text fill="#000000" font-family="Tahoma, sans-serif" font-size="12" lengthAdjust="spacingAndGlyphs" textLength="57" x="646.5" y="526.0059">skills/Skill</text><ellipse cx="515.8051" cy="272.242" fill="#F8F8F8" rx="43.3051" ry="13.242" style="stroke: #383838; stroke-width: 0.5;"/><text fill="#000000" font-family="Tahoma, sans-serif" font-size="12" lengthAdjust="spacingAndGlyphs" textLength="57" x="487.3051" y="275.9842">skills/Skill</text><!--MD5=[f311c13dec2e750ead5b911ed6f475c1]
entity _skills_Skill_d--><rect fill="#F8F8F8" height="34.4844" rx="3" ry="3" style="stroke: #000000; stroke-width: 0.5;" width="101" x="47.5" y="112"/><text fill="#000000" font-family="Tahoma, sans-serif" font-size="12" font-weight="bold" lengthAdjust="spacingAndGlyphs" textLength="81" x="57.5" y="134.0059">skills/Skill.d</text><ellipse cx="324.8492" cy="547.242" fill="#F8F8F8" rx="17.8492" ry="13.242" style="stroke: #383838; stroke-width: 0.5;"/><text fill="#000000" font-family="Tahoma, sans-serif" font-size="12" font-weight="bold" lengthAdjust="spacingAndGlyphs" textLength="21" x="314.3492" y="550.9842">src</text><ellipse cx="325.0551" cy="29.111" fill="#F8F8F8" rx="93.5551" ry="21.111" style="stroke: #383838; stroke-width: 0.5;"/><text fill="#000000" font-family="Tahoma, sans-serif" font-size="12" font-weight="bold" lengthAdjust="spacingAndGlyphs" textLength="166" x="242.0551" y="32.8532">support/ThrowingFeature</text><!--MD5=[9c45715d7dcb1bc4929bb36fdbc051ab]
entity _support_ThrowingFeature--><rect fill="#F8F8F8" height="34.4844" rx="3" ry="3" style="stroke: #000000; stroke-width: 0.5;" width="186" x="232" y="68"/><text fill="#000000" font-family="Tahoma, sans-serif" font-size="12" font-weight="bold" lengthAdjust="spacingAndGlyphs" textLength="166" x="242" y="90.0059">support/ThrowingFeature</text><!--MD5=[16e4c4bc749a067c86532ba350b7790a]
entity _support_ThrowingFeature_d--><rect fill="#F8F8F8" height="34.4844" rx="3" ry="3" style="stroke: #000000; stroke-width: 0.5;" width="198" x="226" y="120"/><text fill="#000000" font-family="Tahoma, sans-serif" font-size="12" font-weight="bold" lengthAdjust="spacingAndGlyphs" textLength="178" x="236" y="142.0059">support/ThrowingFeature.d</text><!--MD5=[f31a7421fb9947a9f27ccf3e47900d61]
entity _tests_AbstractSkillTest--><rect fill="#F8F8F8" height="34.4844" rx="3" ry="3" style="stroke: #000000; stroke-width: 0.5;" width="149" x="250.5" y="626"/><text fill="#000000" font-family="Tahoma, sans-serif" font-size="12" lengthAdjust="spacingAndGlyphs" textLength="129" x="260.5" y="648.0059">tests/AbstractSkillTest</text><ellipse cx="324.9695" cy="317.7939" fill="#F8F8F8" rx="76.9695" ry="17.7939" style="stroke: #383838; stroke-width: 0.5;"/><text fill="#000000" font-family="Tahoma, sans-serif" font-size="12" lengthAdjust="spacingAndGlyphs" textLength="129" x="260.4695" y="321.5361">tests/AbstractSkillTest</text><!--MD5=[9f85bb698c0f003149a157aafd4f2362]
entity _tests_AbstractSkillTest_d--><rect fill="#F8F8F8" height="34.4844" rx="3" ry="3" style="stroke: #000000; stroke-width: 0.5;" width="184" x="6" y="488"/><text fill="#000000" font-family="Tahoma, sans-serif" font-size="12" font-weight="bold" lengthAdjust="spacingAndGlyphs" textLength="164" x="16" y="510.0059">tests/AbstractSkillTest.d</text><ellipse cx="325.0426" cy="593.2085" fill="#F8F8F8" rx="61.5426" ry="14.7085" style="stroke: #383838; stroke-width: 0.5;"/><text fill="#000000" font-family="Tahoma, sans-serif" font-size="12" lengthAdjust="spacingAndGlyphs" textLength="92" x="279.0426" y="596.9507">types/skill.types</text><!--MD5=[dc75d5cd14d450539ae21ab07b5502e4]
entity _types_skill_types--><rect fill="#F8F8F8" height="34.4844" rx="3" ry="3" style="stroke: #000000; stroke-width: 0.5;" width="112" x="460" y="568"/><text fill="#000000" font-family="Tahoma, sans-serif" font-size="12" lengthAdjust="spacingAndGlyphs" textLength="92" x="470" y="590.0059">types/skill.types</text><!--MD5=[4cc2a3f0df6a3276bb0787ee4c6cc486]
entity _types_skill_types_d--><rect fill="#F8F8F8" height="34.4844" rx="3" ry="3" style="stroke: #000000; stroke-width: 0.5;" width="141" x="254.5" y="354"/><text fill="#000000" font-family="Tahoma, sans-serif" font-size="12" font-weight="bold" lengthAdjust="spacingAndGlyphs" textLength="121" x="264.5" y="376.0059">types/skill.types.d</text><!--MD5=[d73d8f5eacefec366fafcc7071ea8f63]
link <b>build</b> to skills/Skill--><path d="M350.211,187.7 C370.581,190.604 400.123,196.322 424,207 C451.776,219.422 479.648,240.995 497.089,255.859 " fill="none" id="&lt;b&gt;build&lt;/b&gt;-&gt;skills/Skill" style="stroke: #000000; stroke-width: 1.0;"/><polygon fill="#000000" points="501.292,259.484,497.0883,250.5773,497.5054,256.2188,491.864,256.6358,501.292,259.484" style="stroke: #000000; stroke-width: 1.0;"/><!--MD5=[624434eed41b32bbd887be65a568f13e]
link <b>build</b> to tests/AbstractSkillTest--><path d="M299.608,182.825 C271.147,182.004 226.56,185.97 208,216 C185.491,252.42 235.985,282.921 277.538,300.822 " fill="none" id="&lt;b&gt;build&lt;/b&gt;-&gt;tests/AbstractSkillTest" style="stroke: #000000; stroke-width: 1.0;"/><polygon fill="#000000" points="282.298,302.835,275.5668,295.6454,277.6929,300.8875,272.4508,303.0136,282.298,302.835" style="stroke: #000000; stroke-width: 1.0;"/><!--MD5=[3cb172d7f9690d7afe0759ae70dd6bf4]
link <b>build</b> to types/skill.types--><path d="M299.608,182.825 C271.147,182.004 226.56,185.97 208,216 C187.905,248.514 187.905,527.486 208,560 C218.842,577.5434 238.455,586.502 258.563,590.8735 " fill="none" id="&lt;b&gt;build&lt;/b&gt;-&gt;types/skill.types" style="stroke: #000000; stroke-width: 1.0;"/><polygon fill="#000000" points="263.68,591.8884,255.6303,586.2137,258.7756,590.9155,254.0737,594.0608,263.68,591.8884" style="stroke: #000000; stroke-width: 1.0;"/><!--MD5=[49f0df5537832003bd331ebe9fd7a9dd]
link <b>build/index.d</b> to skills/Skill--><path d="M368.887,239.53 C400.935,246.652 444.408,256.313 475.587,263.242 " fill="none" id="&lt;b&gt;build/index.d&lt;/b&gt;-&gt;skills/Skill" style="stroke: #000000; stroke-width: 1.0;"/><polygon fill="#000000" points="480.482,264.329,472.5635,258.4726,475.601,263.2448,470.8288,266.2823,480.482,264.329" style="stroke: #000000; stroke-width: 1.0;"/><!--MD5=[a56dd02996a76ce42bc6cde7509be31e]
link <b>build/index.d</b> to tests/AbstractSkillTest--><path d="M325,244.174 C325,260.972 325,277.77 325,294.568 " fill="none" id="&lt;b&gt;build/index.d&lt;/b&gt;-&gt;tests/AbstractSkillTest" style="stroke: #000000; stroke-width: 1.0;"/><polygon fill="#000000" points="325,299.781,329,290.781,325,294.781,321,290.781,325,299.781" style="stroke: #000000; stroke-width: 1.0;"/><!--MD5=[e5c221e136f611d5897e05dbcb0a37a8]
link <b>build/index.d</b> to types/skill.types--><path d="M266.88,232.804 C244.08,237.257 220.432,246.884 208,267 C190.885,294.693 190.885,532.307 208,560 C218.842,577.5434 238.455,586.502 258.563,590.8735 " fill="none" id="&lt;b&gt;build/index.d&lt;/b&gt;-&gt;types/skill.types" style="stroke: #000000; stroke-width: 1.0;"/><polygon fill="#000000" points="263.68,591.8884,255.6303,586.2137,258.7756,590.9155,254.0737,594.0608,263.68,591.8884" style="stroke: #000000; stroke-width: 1.0;"/><!--MD5=[b37529e5f23e0437a55d939a331b3ec7]
link <b>esm</b> to _skills_Skill--><path d="M347.462,460.158 C390.291,466.554 489.358,481.809 572,498 C591.54,501.828 613.061,506.598 631.278,510.8 " fill="none" id="&lt;b&gt;esm&lt;/b&gt;-&gt;_skills_Skill" style="stroke: #000000; stroke-width: 1.0;"/><polygon fill="#000000" points="636.325,511.969,628.4583,506.0432,631.4537,510.8419,626.655,513.8372,636.325,511.969" style="stroke: #000000; stroke-width: 1.0;"/><!--MD5=[a50d2ee348c173f04dee7d739d958bff]
link <b>esm</b> to _tests_AbstractSkillTest--><path d="M302.106,454.911 C273.825,453.791 227.112,457.076 208,488 C193.981,510.684 193.981,585.316 208,608 C216.485,621.7295 230.27,630.3885 245.452,635.7786 " fill="none" id="&lt;b&gt;esm&lt;/b&gt;-&gt;_tests_AbstractSkillTest" style="stroke: #000000; stroke-width: 1.0;"/><polygon fill="#000000" points="250.204,637.3485,242.9132,630.727,245.4564,635.7799,240.4035,638.3231,250.204,637.3485" style="stroke: #000000; stroke-width: 1.0;"/><!--MD5=[c25ebe6c7fc53de160069dde91eb6df8]
link <b>esm</b> to types/skill.types--><path d="M302.106,454.911 C273.825,453.791 227.112,457.076 208,488 C191.177,515.221 191.177,532.779 208,560 C218.842,577.5434 238.455,586.502 258.563,590.8735 " fill="none" id="&lt;b&gt;esm&lt;/b&gt;-&gt;types/skill.types" style="stroke: #000000; stroke-width: 1.0;"/><polygon fill="#000000" points="263.68,591.8884,255.6303,586.2137,258.7756,590.9155,254.0737,594.0608,263.68,591.8884" style="stroke: #000000; stroke-width: 1.0;"/><!--MD5=[2ba6a8ca21bcb9caf2a779a342d25d89]
link <b>esm/index.d</b> to _skills_Skill--><path d="M381.526,505.032 C450.959,508.822 568.323,515.23 631.197,518.663 " fill="none" id="&lt;b&gt;esm/index.d&lt;/b&gt;-&gt;_skills_Skill" style="stroke: #000000; stroke-width: 1.0;"/><polygon fill="#000000" points="636.368,518.945,627.5997,514.4598,631.3754,518.6722,627.1631,522.4479,636.368,518.945" style="stroke: #000000; stroke-width: 1.0;"/><!--MD5=[048301d1f5e431a674ee3f3e5411c206]
link <b>esm/index.d</b> to _tests_AbstractSkillTest--><path d="M267.358,501.94 C244.344,505.304 220.4,513.937 208,534 C190.709,561.977 190.709,580.023 208,608 C216.485,621.7295 230.27,630.3885 245.452,635.7786 " fill="none" id="&lt;b&gt;esm/index.d&lt;/b&gt;-&gt;_tests_AbstractSkillTest" style="stroke: #000000; stroke-width: 1.0;"/><polygon fill="#000000" points="250.204,637.3485,242.9132,630.727,245.4564,635.7799,240.4035,638.3231,250.204,637.3485" style="stroke: #000000; stroke-width: 1.0;"/><!--MD5=[493e15f75ca02c4a843255dcb0cc1511]
link <b>esm/index.d</b> to types/skill.types--><path d="M267.358,501.94 C244.344,505.304 220.4,513.937 208,534 C201.925,543.83 201.925,550.17 208,560 C218.842,577.5434 238.455,586.502 258.563,590.8735 " fill="none" id="&lt;b&gt;esm/index.d&lt;/b&gt;-&gt;types/skill.types" style="stroke: #000000; stroke-width: 1.0;"/><polygon fill="#000000" points="263.68,591.8884,255.6303,586.2137,258.7756,590.9155,254.0737,594.0608,263.68,591.8884" style="stroke: #000000; stroke-width: 1.0;"/><!--MD5=[dab322426a712b58ea0fd0c99698bfe2]
link _skills_Skill to _errors_SpruceError--><path d="M713.625,526.781 C731.148,527.632 752.54,527.922 772.705,527.653 " fill="none" id="_skills_Skill-&gt;_errors_SpruceError" style="stroke: #000000; stroke-width: 0.5;"/><polygon fill="#000000" points="777.802,527.572,768.7392,523.7165,772.8026,527.652,768.8671,531.7155,777.802,527.572" style="stroke: #000000; stroke-width: 0.5;"/><!--MD5=[dab322426a712b58ea0fd0c99698bfe2]
link _skills_Skill to _errors_SpruceError--><path d="M713.625,515.219 C731.148,514.368 752.54,514.078 772.705,514.347 " fill="none" id="_skills_Skill-&gt;_errors_SpruceError-1" style="stroke: #000000; stroke-width: 0.5;"/><polygon fill="#000000" points="777.802,514.428,768.8671,510.2845,772.8026,514.348,768.7392,518.2835,777.802,514.428" style="stroke: #000000; stroke-width: 0.5;"/><!--MD5=[39f59429a919b4c3ab8191e90494d042]
link skills/Skill to errors/SpruceError--><path d="M559.901,272 C573.081,272 587.96,272 602.515,272 " fill="none" id="skills/Skill-&gt;errors/SpruceError" style="stroke: #000000; stroke-width: 0.5;"/><polygon fill="#000000" points="607.859,272,598.859,268,602.859,272,598.859,276,607.859,272" style="stroke: #000000; stroke-width: 0.5;"/><!--MD5=[803ade9dfb63cf037c950832f734916b]
link <b>src</b> to _skills_Skill--><path d="M343.257,545.711 C395.625,541.798 553.836,529.978 630.894,524.221 " fill="none" id="&lt;b&gt;src&lt;/b&gt;-&gt;_skills_Skill" style="stroke: #000000; stroke-width: 1.0;"/><polygon fill="#000000" points="636.299,523.817,627.0267,520.4967,631.3128,524.1885,627.621,528.4746,636.299,523.817" style="stroke: #000000; stroke-width: 1.0;"/><!--MD5=[81461d9197fc83f62e188a5736aee909]
link <b>src</b> to _tests_AbstractSkillTest--><path d="M306.827,545.325 C279.342,543.952 228.26,546.218 208,579 C201.224,589.9639 201.224,597.0361 208,608 C216.485,621.7295 230.27,630.3885 245.452,635.7786 " fill="none" id="&lt;b&gt;src&lt;/b&gt;-&gt;_tests_AbstractSkillTest" style="stroke: #000000; stroke-width: 1.0;"/><polygon fill="#000000" points="250.204,637.3485,242.9132,630.727,245.4564,635.7799,240.4035,638.3231,250.204,637.3485" style="stroke: #000000; stroke-width: 1.0;"/><!--MD5=[778522940f7bac56e45eed29d7c259ce]
link <b>src</b> to _types_skill_types--><path d="M342.442,550.306 C367.196,555.283 415.305,564.9556 454.451,572.8261 " fill="none" id="&lt;b&gt;src&lt;/b&gt;-&gt;_types_skill_types" style="stroke: #000000; stroke-width: 1.0;"/><polygon fill="#000000" points="459.666,573.8747,451.6312,568.1789,454.7641,572.889,450.0541,576.0219,459.666,573.8747" style="stroke: #000000; stroke-width: 1.0;"/><!--MD5=[a4799b10a4e0d365925ebe72b9048b90]
link _tests_AbstractSkillTest to _skills_Skill--><path d="M399.573,652.1231 C450.138,652.0017 517.686,644.6581 572,620 C610.059,602.7218 644.246,566.3178 661.724,542.517 " fill="none" id="_tests_AbstractSkillTest-&gt;_skills_Skill" style="stroke: #000000; stroke-width: 0.5;"/><polygon fill="#000000" points="664.79,538.227,656.3023,543.2228,661.8825,542.2947,662.8106,547.8749,664.79,538.227" style="stroke: #000000; stroke-width: 0.5;"/><!--MD5=[a4799b10a4e0d365925ebe72b9048b90]
link _tests_AbstractSkillTest to _skills_Skill--><path d="M399.573,636.9734 C450.138,634.0017 517.686,626.6581 572,602 C603.046,587.9053 631.516,561.0834 650.441,541.987 " fill="none" id="_tests_AbstractSkillTest-&gt;_skills_Skill-1" style="stroke: #000000; stroke-width: 0.5;"/><polygon fill="#000000" points="654.097,538.277,644.9306,541.8793,650.5873,541.8382,650.6284,547.4949,654.097,538.277" style="stroke: #000000; stroke-width: 0.5;"/><!--MD5=[b35d2f683f59c58994b23508a8f2deb9]
link tests/AbstractSkillTest to skills/Skill--><path d="M378.898,305.125 C409.946,297.569 448.478,288.19 476.61,281.344 " fill="none" id="tests/AbstractSkillTest-&gt;skills/Skill" style="stroke: #000000; stroke-width: 0.5;"/><polygon fill="#000000" points="481.738,280.096,472.0471,278.3391,476.88,281.2791,473.94,286.1119,481.738,280.096" style="stroke: #000000; stroke-width: 0.5;"/><!--MD5=[8242b3ce13ecb9a32ef97aeaa71b46c0]
link _tests_AbstractSkillTest to _types_skill_types--><path d="M393.15,625.9366 C403.519,623.0853 414.075,620.0566 424,617 C436.858,613.0404 450.607,608.4146 463.423,603.9307 " fill="none" id="_tests_AbstractSkillTest-&gt;_types_skill_types" style="stroke: #000000; stroke-width: 0.5;"/><polygon fill="#000000" points="468.472,602.1545,458.6547,601.3665,463.7551,603.8131,461.3085,608.9135,468.472,602.1545" style="stroke: #000000; stroke-width: 0.5;"/><!--MD5=[8099fe0693510acf59b8157824b903e3]
link _tests_AbstractSkillTest_d to _skills_Skill--><path d="M121.818,487.729 C146.136,470.496 186.502,445.164 226,435 C375.869,396.433 426.353,421.704 572,474 C593.654,481.775 617.017,492.368 635.913,501.53 " fill="none" id="_tests_AbstractSkillTest_d-&gt;_skills_Skill" style="stroke: #000000; stroke-width: 1.0;"/><polygon fill="#000000" points="640.617,503.825,634.2834,496.2827,636.1236,501.6319,630.7745,503.4721,640.617,503.825" style="stroke: #000000; stroke-width: 1.0;"/><!--MD5=[0e489a1f7fe43993f7e49ef09542193e]
link _tests_AbstractSkillTest_d to types/skill.types--><path d="M117.337,522.089 C141.509,538.907 185.695,563.1285 226,578 C236.856,582.0058 248.636,585.5424 260.139,588.4305 " fill="none" id="_tests_AbstractSkillTest_d-&gt;types/skill.types" style="stroke: #000000; stroke-width: 1.0;"/><polygon fill="#000000" points="265.049,589.6281,257.2542,583.608,260.1916,588.4424,255.3572,591.3798,265.049,589.6281" style="stroke: #000000; stroke-width: 1.0;"/><!--MD5=[0e489a1f7fe43993f7e49ef09542193e]
link _tests_AbstractSkillTest_d to types/skill.types--><path d="M142.566,522.069 C166.583,534.055 197.277,549.402 226,560 C246.73,567.6488 270.824,573.5868 289.935,578.7197 " fill="none" id="_tests_AbstractSkillTest_d-&gt;types/skill.types-1" style="stroke: #000000; stroke-width: 1.0;"/><polygon fill="#000000" points="295.186,580.1468,287.5503,573.9262,290.3611,578.8353,285.4519,581.6461,295.186,580.1468" style="stroke: #000000; stroke-width: 1.0;"/><!--MD5=[75e191c03dc120104cbeb3c20f5c1875]
link _tests_AbstractSkillTest_d to skills/Skill--><path d="M103.2934,487.804 C114.838,445.619 150.884,337.098 226,291 C303.376,243.515 415.362,253.559 474.651,263.604 " fill="none" id="_tests_AbstractSkillTest_d-&gt;skills/Skill" style="stroke: #000000; stroke-width: 1.0;"/><polygon fill="#000000" points="479.872,264.512,471.6895,259.0306,474.9458,263.6562,470.3202,266.9125,479.872,264.512" style="stroke: #000000; stroke-width: 1.0;"/><!--MD5=[a0540f25ca3abc9d3bd3f89832d9f95c]
link _types_skill_types to _skills_Skill--><path d="M559.073,567.8492 C581.545,558.689 609.134,547.442 631.648,538.265 " fill="none" id="_types_skill_types-&gt;_skills_Skill" style="stroke: #000000; stroke-width: 0.5;"/><polygon fill="#000000" points="636.371,536.339,626.5269,536.0345,631.7413,538.2274,629.5483,543.4419,636.371,536.339" style="stroke: #000000; stroke-width: 0.5;"/><!--MD5=[772e5e9c140c0a09e5381cfa293819df]
link _types_skill_types_d to _skills_Skill--><path d="M395.525,366.736 C447.144,366.55 517.702,372.775 572,402 C613.676,424.431 645.807,471.317 662.124,499.07 " fill="none" id="_types_skill_types_d-&gt;_skills_Skill" style="stroke: #000000; stroke-width: 1.0;"/><polygon fill="#000000" points="664.795,503.687,663.7489,493.8939,662.2905,499.3595,656.8249,497.9011,664.795,503.687" style="stroke: #000000; stroke-width: 1.0;"/><!--MD5=[305e6312fb841e266a9f300b3e0bffa9]
link _types_skill_types_d to skills/Skill--><path d="M395.613,356.409 C405.39,353.255 415.123,349.484 424,345 C453.413,330.144 482.195,304.686 499.268,288.103 " fill="none" id="_types_skill_types_d-&gt;skills/Skill" style="stroke: #000000; stroke-width: 1.0;"/><polygon fill="#000000" points="502.936,284.501,493.7112,287.951,499.3678,288.0035,499.3152,293.6601,502.936,284.501" style="stroke: #000000; stroke-width: 1.0;"/><!--MD5=[5b9df1457446021e6c8797fcdd896913]
link _errors_SpruceError_d to <b>release.config</b>--><!--MD5=[ad6becc2f210a9182aca15508a4f6f97]
link <b>release.config</b> to _skills_Skill_d--><!--MD5=[2fede31647fe8601b8ad06d98b1be3dc]
link _errors_SpruceError_d to <b>support/ThrowingFeature</b>--><!--MD5=[b04b291999c134a9484d993470b352b8]
link <b>support/ThrowingFeature</b> to _support_ThrowingFeature--><!--MD5=[4f010232765381b40bad70b48b69a9e7]
link _support_ThrowingFeature to _support_ThrowingFeature_d--><script type="text/plantuml"><![CDATA[MD5=[c05486e78c18ecfa10d373d66f6bba4a]
@startuml

scale max 1920 width
left to right direction

skinparam nodesep 18
skinparam ranksep 36
skinparam monochrome true
skinparam shadowing false
skinparam defaultFontName Tahoma
skinparam defaultFontSize 12
skinparam roundCorner 6
skinparam dpi 150
skinparam arrowColor black
skinparam arrowThickness 0.5
skinparam packageTitleAlignment left

skinparam usecase {
  borderThickness 0.5
}

skinparam rectangle {
  borderThickness 0.5
}

skinparam component {
  borderThickness 1
}


(<b>build</b>)
(<b>build/index.d</b>)
(errors/SpruceError)
rectangle "errors/SpruceError" as _errors_SpruceError
rectangle "errors/SpruceError" as _errors_SpruceError
rectangle "<b>errors/SpruceError.d</b>" as _errors_SpruceError_d
rectangle "<b>errors/SpruceError.d</b>" as _errors_SpruceError_d
(<b>esm</b>)
(<b>esm/index.d</b>)
(<b>release.config</b>)
rectangle "skills/Skill" as _skills_Skill
(skills/Skill)
rectangle "skills/Skill" as _skills_Skill
rectangle "<b>skills/Skill.d</b>" as _skills_Skill_d
rectangle "<b>skills/Skill.d</b>" as _skills_Skill_d
(<b>src</b>)
(<b>support/ThrowingFeature</b>)
rectangle "<b>support/ThrowingFeature</b>" as _support_ThrowingFeature
rectangle "<b>support/ThrowingFeature</b>" as _support_ThrowingFeature
rectangle "<b>support/ThrowingFeature.d</b>" as _support_ThrowingFeature_d
rectangle "<b>support/ThrowingFeature.d</b>" as _support_ThrowingFeature_d
rectangle "tests/AbstractSkillTest" as _tests_AbstractSkillTest
(tests/AbstractSkillTest)
rectangle "tests/AbstractSkillTest" as _tests_AbstractSkillTest
rectangle "<b>tests/AbstractSkillTest.d</b>" as _tests_AbstractSkillTest_d
rectangle "<b>tests/AbstractSkillTest.d</b>" as _tests_AbstractSkillTest_d
(types/skill.types)
(types/skill.types)
rectangle "types/skill.types" as _types_skill_types
rectangle "<b>types/skill.types.d</b>" as _types_skill_types_d
rectangle "<b>types/skill.types.d</b>" as _types_skill_types_d


(<b>build</b>) -[thickness=1]> (skills/Skill)
(<b>build</b>) -[thickness=1]> (tests/AbstractSkillTest)
(<b>build</b>) -[thickness=1]> (types/skill.types)
(<b>build/index.d</b>) -[thickness=1]> (skills/Skill)
(<b>build/index.d</b>) -[thickness=1]> (tests/AbstractSkillTest)
(<b>build/index.d</b>) -[thickness=1]> (types/skill.types)
(<b>esm</b>) -[thickness=1]> _skills_Skill
(<b>esm</b>) -[thickness=1]> _tests_AbstractSkillTest
(<b>esm</b>) -[thickness=1]> (types/skill.types)
(<b>esm/index.d</b>) -[thickness=1]> _skills_Skill
(<b>esm/index.d</b>) -[thickness=1]> _tests_AbstractSkillTest
(<b>esm/index.d</b>) -[thickness=1]> (types/skill.types)
_skills_Skill --> _errors_SpruceError
(skills/Skill) --> (errors/SpruceError)
_skills_Skill --> _errors_SpruceError
(<b>src</b>) -[thickness=1]> _skills_Skill
(<b>src</b>) -[thickness=1]> _tests_AbstractSkillTest
(<b>src</b>) -[thickness=1]> _types_skill_types
_tests_AbstractSkillTest --> _skills_Skill
(tests/AbstractSkillTest) --> (skills/Skill)
_tests_AbstractSkillTest --> _skills_Skill
_tests_AbstractSkillTest --> _types_skill_types
_tests_AbstractSkillTest_d --[thickness=1]> _skills_Skill
_tests_AbstractSkillTest_d --[thickness=1]> (types/skill.types)
_tests_AbstractSkillTest_d --[thickness=1]> (skills/Skill)
_tests_AbstractSkillTest_d --[thickness=1]> (types/skill.types)
_types_skill_types --> _skills_Skill
_types_skill_types_d --[thickness=1]> _skills_Skill
_types_skill_types_d --[thickness=1]> (skills/Skill)

@enduml


' View and edit on https://arkit.pro
]]></script></g></svg>