<?xml version="1.0" encoding="UTF-8" standalone="no"?><svg xmlns="http://www.w3.org/2000/svg" xmlns:xlink="http://www.w3.org/1999/xlink" contentScriptType="application/ecmascript" contentStyleType="text/css" height="628px" preserveAspectRatio="none" style="width:929px;height:628px;" version="1.1" viewBox="0 0 929 628" width="929px" zoomAndPan="magnify"><defs/><g><ellipse cx="384.6274" cy="249.242" fill="#F8F8F8" rx="25.6274" ry="13.242" style="stroke: #383838; stroke-width: 0.5;"/><text fill="#000000" font-family="Tahoma, sans-serif" font-size="12" font-weight="bold" lengthAdjust="spacingAndGlyphs" textLength="32" x="368.6274" y="252.9842">build</text><ellipse cx="123.608" cy="30.9216" fill="#F8F8F8" rx="70.108" ry="16.4216" style="stroke: #383838; stroke-width: 0.5;"/><text fill="#000000" font-family="Tahoma, sans-serif" font-size="12" font-weight="bold" lengthAdjust="spacingAndGlyphs" textLength="113" x="67.108" y="34.6638">build/Good.store</text><!--MD5=[4436777e01f53eec7edce03678fef373]
entity _build_Good_store_d--><rect fill="#F8F8F8" height="34.4844" rx="3" ry="3" style="stroke: #000000; stroke-width: 0.5;" width="145" x="51" y="69"/><text fill="#000000" font-family="Tahoma, sans-serif" font-size="12" font-weight="bold" lengthAdjust="spacingAndGlyphs" textLength="125" x="61" y="91.0059">build/Good.store.d</text><ellipse cx="384.3344" cy="297.1669" fill="#F8F8F8" rx="58.8344" ry="14.1669" style="stroke: #383838; stroke-width: 0.5;"/><text fill="#000000" font-family="Tahoma, sans-serif" font-size="12" font-weight="bold" lengthAdjust="spacingAndGlyphs" textLength="85" x="341.8344" y="300.9091">build/index.d</text><ellipse cx="123.383" cy="149.8766" fill="#F8F8F8" rx="117.383" ry="25.8766" style="stroke: #383838; stroke-width: 0.5;"/><text fill="#000000" font-family="Tahoma, sans-serif" font-size="12" font-weight="bold" lengthAdjust="spacingAndGlyphs" textLength="217" x="14.883" y="153.6188">errors/failedToLoadStore.builder</text><ellipse cx="606.189" cy="348.8378" fill="#F8F8F8" rx="67.189" ry="15.8378" style="stroke: #383838; stroke-width: 0.5;"/><text fill="#000000" font-family="Tahoma, sans-serif" font-size="12" lengthAdjust="spacingAndGlyphs" textLength="106" x="553.189" y="352.58">errors/SpruceError</text><!--MD5=[0df72be079b7be722000360c8a62aa36]
entity _errors_SpruceError--><rect fill="#F8F8F8" height="34.4844" rx="3" ry="3" style="stroke: #000000; stroke-width: 0.5;" width="126" x="543" y="583"/><text fill="#000000" font-family="Tahoma, sans-serif" font-size="12" lengthAdjust="spacingAndGlyphs" textLength="106" x="553" y="605.0059">errors/SpruceError</text><!--MD5=[8f883dc3c2ef28ef82b5a7d9e72891d4]
entity _errors_SpruceError_d--><rect fill="#F8F8F8" height="34.4844" rx="3" ry="3" style="stroke: #000000; stroke-width: 0.5;" width="156" x="45.5" y="197"/><text fill="#000000" font-family="Tahoma, sans-serif" font-size="12" font-weight="bold" lengthAdjust="spacingAndGlyphs" textLength="136" x="55.5" y="219.0059">errors/SpruceError.d</text><ellipse cx="384.299" cy="400.242" fill="#F8F8F8" rx="22.799" ry="13.242" style="stroke: #383838; stroke-width: 0.5;"/><text fill="#000000" font-family="Tahoma, sans-serif" font-size="12" font-weight="bold" lengthAdjust="spacingAndGlyphs" textLength="28" x="370.299" y="403.9842">esm</text><ellipse cx="384.3275" cy="494.8655" fill="#F8F8F8" rx="57.3275" ry="13.8655" style="stroke: #383838; stroke-width: 0.5;"/><text fill="#000000" font-family="Tahoma, sans-serif" font-size="12" font-weight="bold" lengthAdjust="spacingAndGlyphs" textLength="81" x="343.8275" y="498.6077">esm/index.d</text><ellipse cx="384.4047" cy="31.1809" fill="#F8F8F8" rx="101.4047" ry="22.6809" style="stroke: #383838; stroke-width: 0.5;"/><text fill="#000000" font-family="Tahoma, sans-serif" font-size="12" font-weight="bold" lengthAdjust="spacingAndGlyphs" textLength="183" x="292.9047" y="34.9231">failedToLoadStore.builder.d</text><!--MD5=[195129bae5656306e9c5770f91e70d06]
entity _plugins_store_plugin--><rect fill="#F8F8F8" height="34.4844" rx="3" ry="3" style="stroke: #000000; stroke-width: 0.5;" width="133" x="318" y="583"/><text fill="#000000" font-family="Tahoma, sans-serif" font-size="12" lengthAdjust="spacingAndGlyphs" textLength="113" x="328" y="605.0059">plugins/store.plugin</text><ellipse cx="384.608" cy="348.9216" fill="#F8F8F8" rx="70.108" ry="16.4216" style="stroke: #383838; stroke-width: 0.5;"/><text fill="#000000" font-family="Tahoma, sans-serif" font-size="12" lengthAdjust="spacingAndGlyphs" textLength="113" x="328.108" y="352.6638">plugins/store.plugin</text><!--MD5=[bc95765a2251ada4a521bdc5772be418]
entity _plugins_store_plugin_d--><rect fill="#F8F8F8" height="34.4844" rx="3" ry="3" style="stroke: #000000; stroke-width: 0.5;" width="165" x="41" y="528"/><text fill="#000000" font-family="Tahoma, sans-serif" font-size="12" font-weight="bold" lengthAdjust="spacingAndGlyphs" textLength="145" x="51" y="550.0059">plugins/store.plugin.d</text><ellipse cx="384.7284" cy="89.9457" fill="#F8F8F8" rx="62.7284" ry="14.9457" style="stroke: #383838; stroke-width: 0.5;"/><text fill="#000000" font-family="Tahoma, sans-serif" font-size="12" font-weight="bold" lengthAdjust="spacingAndGlyphs" textLength="95" x="337.2284" y="93.6879">release.config</text><ellipse cx="384.3492" cy="447.242" fill="#F8F8F8" rx="17.8492" ry="13.242" style="stroke: #383838; stroke-width: 0.5;"/><text fill="#000000" font-family="Tahoma, sans-serif" font-size="12" font-weight="bold" lengthAdjust="spacingAndGlyphs" textLength="21" x="373.8492" y="450.9842">src</text><!--MD5=[00b64d561bbc342e283ad5aaf47ba88c]
entity _src_Good_store--><rect fill="#F8F8F8" height="34.4844" rx="3" ry="3" style="stroke: #000000; stroke-width: 0.5;" width="122" x="323.5" y="126"/><text fill="#000000" font-family="Tahoma, sans-serif" font-size="12" font-weight="bold" lengthAdjust="spacingAndGlyphs" textLength="102" x="333.5" y="148.0059">src/Good.store</text><ellipse cx="384.608" cy="197.9216" fill="#F8F8F8" rx="70.108" ry="16.4216" style="stroke: #383838; stroke-width: 0.5;"/><text fill="#000000" font-family="Tahoma, sans-serif" font-size="12" font-weight="bold" lengthAdjust="spacingAndGlyphs" textLength="113" x="328.108" y="201.6638">stores/Bad.store</text><ellipse cx="606.2321" cy="30.9464" fill="#F8F8F8" rx="75.2321" ry="17.4464" style="stroke: #383838; stroke-width: 0.5;"/><text fill="#000000" font-family="Tahoma, sans-serif" font-size="12" font-weight="bold" lengthAdjust="spacingAndGlyphs" textLength="125" x="543.7321" y="34.6886">stores/Bad.store.d</text><ellipse cx="605.7999" cy="86.86" fill="#F8F8F8" rx="74.7999" ry="17.36" style="stroke: #383838; stroke-width: 0.5;"/><text fill="#000000" font-family="Tahoma, sans-serif" font-size="12" font-weight="bold" lengthAdjust="spacingAndGlyphs" textLength="124" x="543.7999" y="90.6022">stores/Good.store</text><!--MD5=[67b4541d25963fc661bc9582df6e97c1]
entity _stores_Good_store--><rect fill="#F8F8F8" height="34.4844" rx="3" ry="3" style="stroke: #000000; stroke-width: 0.5;" width="144" x="534" y="126"/><text fill="#000000" font-family="Tahoma, sans-serif" font-size="12" font-weight="bold" lengthAdjust="spacingAndGlyphs" textLength="124" x="544" y="148.0059">stores/Good.store</text><!--MD5=[5bf0a77712ee79a9162db9951c58b641]
entity _stores_Good_store_d--><rect fill="#F8F8F8" height="34.4844" rx="3" ry="3" style="stroke: #000000; stroke-width: 0.5;" width="156" x="528" y="181"/><text fill="#000000" font-family="Tahoma, sans-serif" font-size="12" font-weight="bold" lengthAdjust="spacingAndGlyphs" textLength="136" x="538" y="203.0059">stores/Good.store.d</text><!--MD5=[c213d9bc1edcc8b2581642db2ac531a8]
entity _tests_AbstractStoreTest--><rect fill="#F8F8F8" height="34.4844" rx="3" ry="3" style="stroke: #000000; stroke-width: 0.5;" width="180" x="33.5" y="583"/><text fill="#000000" font-family="Tahoma, sans-serif" font-size="12" font-weight="bold" lengthAdjust="spacingAndGlyphs" textLength="160" x="43.5" y="605.0059">tests/AbstractStoreTest</text><ellipse cx="123.3136" cy="349.0627" fill="#F8F8F8" rx="90.8136" ry="20.5627" style="stroke: #383838; stroke-width: 0.5;"/><text fill="#000000" font-family="Tahoma, sans-serif" font-size="12" font-weight="bold" lengthAdjust="spacingAndGlyphs" textLength="160" x="43.3136" y="352.8049">tests/AbstractStoreTest</text><!--MD5=[637f121c25910308a7c692eb29e5ef7b]
entity _tests_AbstractStoreTest_d--><rect fill="#F8F8F8" height="34.4844" rx="3" ry="3" style="stroke: #000000; stroke-width: 0.5;" width="192" x="726" y="14"/><text fill="#000000" font-family="Tahoma, sans-serif" font-size="12" font-weight="bold" lengthAdjust="spacingAndGlyphs" textLength="172" x="736" y="36.0059">tests/AbstractStoreTest.d</text><ellipse cx="384.7352" cy="545.847" fill="#F8F8F8" rx="64.7352" ry="15.347" style="stroke: #383838; stroke-width: 0.5;"/><text fill="#000000" font-family="Tahoma, sans-serif" font-size="12" lengthAdjust="spacingAndGlyphs" textLength="100" x="334.7352" y="549.5892">types/store.types</text><!--MD5=[bd78bd62135eee4f29b6aa5f9fac634e]
entity _types_store_types--><rect fill="#F8F8F8" height="34.4844" rx="3" ry="3" style="stroke: #000000; stroke-width: 0.5;" width="120" x="546" y="479"/><text fill="#000000" font-family="Tahoma, sans-serif" font-size="12" lengthAdjust="spacingAndGlyphs" textLength="100" x="556" y="501.0059">types/store.types</text><!--MD5=[7a61d0619d728fdd332e8c5b2c8c50e5]
entity _types_store_types_d--><rect fill="#F8F8F8" height="34.4844" rx="3" ry="3" style="stroke: #000000; stroke-width: 0.5;" width="149" x="747.5" y="69"/><text fill="#000000" font-family="Tahoma, sans-serif" font-size="12" font-weight="bold" lengthAdjust="spacingAndGlyphs" textLength="129" x="757.5" y="91.0059">types/store.types.d</text><!--MD5=[293118630090a01980690659a188486e]
link <b>build</b> to plugins/store.plugin--><path d="M359,247.247 C329.287,246.819 281.747,251.549 262,283.5 C255.458,294.086 255.458,300.914 262,311.5 C272.726,328.854 291.492,338.587 311.16,343.931 " fill="none" id="&lt;b&gt;build&lt;/b&gt;-&gt;plugins/store.plugin" style="stroke: #000000; stroke-width: 1.0;"/><polygon fill="#000000" points="316.176,345.197,308.4279,339.1169,311.3279,343.9739,306.4709,346.8739,316.176,345.197" style="stroke: #000000; stroke-width: 1.0;"/><!--MD5=[21c42f9834e13a56aee6ab1dbdd3b711]
link <b>build</b> to types/store.types--><path d="M359,247.247 C329.287,246.819 281.747,251.549 262,283.5 C235.597,326.222 235.597,466.778 262,509.5 C273.449,528.0246 294.121,537.7105 315.263,542.612 " fill="none" id="&lt;b&gt;build&lt;/b&gt;-&gt;types/store.types" style="stroke: #000000; stroke-width: 1.0;"/><polygon fill="#000000" points="320.352,543.7006,312.3876,537.9068,315.4626,542.6549,310.7145,545.7299,320.352,543.7006" style="stroke: #000000; stroke-width: 1.0;"/><!--MD5=[f2e633560ff1b9bd875b220266a085d5]
link <b>build/index.d</b> to plugins/store.plugin--><path d="M384.5,311.082 C384.5,316.398 384.5,321.713 384.5,327.028 " fill="none" id="&lt;b&gt;build/index.d&lt;/b&gt;-&gt;plugins/store.plugin" style="stroke: #000000; stroke-width: 1.0;"/><polygon fill="#000000" points="384.5,332.344,388.5,323.344,384.5,327.344,380.5,323.344,384.5,332.344" style="stroke: #000000; stroke-width: 1.0;"/><!--MD5=[b9535d1f0aa93410b2b94c28566239d4]
link <b>build/index.d</b> to types/store.types--><path d="M325.491,297.831 C301.014,301.639 275.271,311.028 262,332.5 C241.321,365.959 241.321,476.041 262,509.5 C273.449,528.0246 294.121,537.7105 315.263,542.612 " fill="none" id="&lt;b&gt;build/index.d&lt;/b&gt;-&gt;types/store.types" style="stroke: #000000; stroke-width: 1.0;"/><polygon fill="#000000" points="320.352,543.7006,312.3876,537.9068,315.4626,542.6549,310.7145,545.7299,320.352,543.7006" style="stroke: #000000; stroke-width: 1.0;"/><!--MD5=[61cf3ff30eb37fed1597c69c3653ee80]
link <b>esm</b> to _plugins_store_plugin--><path d="M361.574,398.298 C332.108,397.564 282.328,401.609 262,434.5 C247.163,458.507 247.163,537.4927 262,561.5 C273.067,579.4072 292.637,589.3421 312.932,594.7496 " fill="none" id="&lt;b&gt;esm&lt;/b&gt;-&gt;_plugins_store_plugin" style="stroke: #000000; stroke-width: 1.0;"/><polygon fill="#000000" points="317.823,595.9646,310.0532,589.9123,312.9706,594.7589,308.124,597.6763,317.823,595.9646" style="stroke: #000000; stroke-width: 1.0;"/><!--MD5=[5fc39259f1116a32b16f277ecc0f3994]
link <b>esm</b> to types/store.types--><path d="M361.574,398.298 C332.108,397.564 282.328,401.609 262,434.5 C244.476,462.855 244.476,481.145 262,509.5 C273.449,528.0246 294.121,537.7105 315.263,542.612 " fill="none" id="&lt;b&gt;esm&lt;/b&gt;-&gt;types/store.types" style="stroke: #000000; stroke-width: 1.0;"/><polygon fill="#000000" points="320.352,543.7006,312.3876,537.9068,315.4626,542.6549,310.7145,545.7299,320.352,543.7006" style="stroke: #000000; stroke-width: 1.0;"/><!--MD5=[0eeaa8a4e323dce9fdb06b907d2cbdb3]
link <b>esm/index.d</b> to _plugins_store_plugin--><path d="M326.778,495.635 C301.921,499.314 275.503,508.651 262,530.5 C254.757,542.2201 254.757,549.7799 262,561.5 C273.067,579.4072 292.637,589.3421 312.932,594.7496 " fill="none" id="&lt;b&gt;esm/index.d&lt;/b&gt;-&gt;_plugins_store_plugin" style="stroke: #000000; stroke-width: 1.0;"/><polygon fill="#000000" points="317.823,595.9646,310.0532,589.9123,312.9706,594.7589,308.124,597.6763,317.823,595.9646" style="stroke: #000000; stroke-width: 1.0;"/><!--MD5=[34044a608fde51d994252172409e7c48]
link <b>esm/index.d</b> to types/store.types--><path d="M384.5,509.129 C384.5,514.462 384.5,519.795 384.5,525.1279 " fill="none" id="&lt;b&gt;esm/index.d&lt;/b&gt;-&gt;types/store.types" style="stroke: #000000; stroke-width: 1.0;"/><polygon fill="#000000" points="384.5,530.4609,388.5,521.4609,384.5,525.4609,380.5,521.4609,384.5,530.4609" style="stroke: #000000; stroke-width: 1.0;"/><!--MD5=[31423d9789116b3570be33ddb04f6342]
link plugins/store.plugin to errors/SpruceError--><path d="M454.65,349 C479.861,349 508.4,349 533.787,349 " fill="none" id="plugins/store.plugin-&gt;errors/SpruceError" style="stroke: #000000; stroke-width: 0.5;"/><polygon fill="#000000" points="538.821,349,529.821,345,533.821,349,529.821,353,538.821,349" style="stroke: #000000; stroke-width: 0.5;"/><!--MD5=[68f2ed40a8c9268897ecac69f5b5d366]
link _plugins_store_plugin to _errors_SpruceError--><path d="M451.06,600 C478.413,600 510.162,600 537.697,600 " fill="none" id="_plugins_store_plugin-&gt;_errors_SpruceError" style="stroke: #000000; stroke-width: 0.5;"/><polygon fill="#000000" points="542.787,600,533.787,596,537.787,600,533.787,604,542.787,600" style="stroke: #000000; stroke-width: 0.5;"/><!--MD5=[e7a2a9980024231f8ca3e2e4c0c8aff8]
link _plugins_store_plugin to _types_store_types--><path d="M451.1,584.7608 C462.937,581.1611 475.002,576.9118 486,572 C519.714,556.9427 554.951,533.2938 578.248,516.376 " fill="none" id="_plugins_store_plugin-&gt;_types_store_types" style="stroke: #000000; stroke-width: 0.5;"/><polygon fill="#000000" points="582.456,513.299,572.8301,515.3828,578.42,516.2504,577.5524,521.8403,582.456,513.299" style="stroke: #000000; stroke-width: 0.5;"/><!--MD5=[24837eb0ff62814d8c440c6de62b7d68]
link _plugins_store_plugin_d to types/store.types--><path d="M206.094,545.315 C240.999,545.4498 281.31,545.6054 314.677,545.7343 " fill="none" id="_plugins_store_plugin_d-&gt;types/store.types" style="stroke: #000000; stroke-width: 1.0;"/><polygon fill="#000000" points="319.97,545.7547,310.9849,541.7213,314.97,545.7361,310.9552,549.7212,319.97,545.7547" style="stroke: #000000; stroke-width: 1.0;"/><!--MD5=[7c63fe6f0c151793333cbec88a9b8675]
link <b>src</b> to _plugins_store_plugin--><path d="M366.418,445.466 C337.893,444.196 283.489,446.729 262,481.5 C243.307,511.745 243.307,531.2546 262,561.5 C273.067,579.4072 292.637,589.3421 312.932,594.7496 " fill="none" id="&lt;b&gt;src&lt;/b&gt;-&gt;_plugins_store_plugin" style="stroke: #000000; stroke-width: 1.0;"/><polygon fill="#000000" points="317.823,595.9646,310.0532,589.9123,312.9706,594.7589,308.124,597.6763,317.823,595.9646" style="stroke: #000000; stroke-width: 1.0;"/><!--MD5=[f7681236263b16449c44444322c78d5e]
link <b>src</b> to _types_store_types--><path d="M401.998,450.683 C431.05,457.168 492.783,470.949 540.59,481.621 " fill="none" id="&lt;b&gt;src&lt;/b&gt;-&gt;_types_store_types" style="stroke: #000000; stroke-width: 1.0;"/><polygon fill="#000000" points="545.758,482.775,537.8464,476.9093,540.8782,481.6851,536.1025,484.7169,545.758,482.775" style="stroke: #000000; stroke-width: 1.0;"/><!--MD5=[4495e1dfaf49d4c836c27495c46ca5e6]
link _tests_AbstractStoreTest to _plugins_store_plugin--><path d="M213.633,607.1663 C246.001,607.7181 282.107,607.5856 312.68,606.7688 " fill="none" id="_tests_AbstractStoreTest-&gt;_plugins_store_plugin" style="stroke: #000000; stroke-width: 1.0;"/><polygon fill="#000000" points="317.929,606.6202,308.8195,602.8764,312.931,606.7616,309.0457,610.8732,317.929,606.6202" style="stroke: #000000; stroke-width: 1.0;"/><!--MD5=[4495e1dfaf49d4c836c27495c46ca5e6]
link _tests_AbstractStoreTest to _plugins_store_plugin--><path d="M213.633,592.1171 C246.001,591.5101 282.107,591.6559 312.68,592.5543 " fill="none" id="_tests_AbstractStoreTest-&gt;_plugins_store_plugin-1" style="stroke: #000000; stroke-width: 1.0;"/><polygon fill="#000000" points="317.929,592.7178,309.0579,588.4395,312.9314,592.5621,308.8088,596.4356,317.929,592.7178" style="stroke: #000000; stroke-width: 1.0;"/><!--MD5=[5cab72ed23788fab85965703288dc21b]
link <b>tests/AbstractStoreTest</b> to plugins/store.plugin--><path d="M214.722,349 C245.636,349 279.847,349 309.342,349 " fill="none" id="&lt;b&gt;tests/AbstractStoreTest&lt;/b&gt;-&gt;plugins/store.plugin" style="stroke: #000000; stroke-width: 1.0;"/><polygon fill="#000000" points="314.412,349,305.412,345,309.412,349,305.412,353,314.412,349" style="stroke: #000000; stroke-width: 1.0;"/><!--MD5=[34c8dbeb0a9a931087579c641209feea]
link <b>build/Good.store</b> to _build_Good_store_d--><!--MD5=[2d2d29807e36c53aab3f2a1df9ddad15]
link _build_Good_store_d to <b>errors/failedToLoadStore.builder</b>--><!--MD5=[d9a1d99800d6aa7f9d401473c493df79]
link <b>errors/failedToLoadStore.builder</b> to _errors_SpruceError_d--><!--MD5=[b8598bd08f7ba93e1be2546f810de8f2]
link <b>build/Good.store</b> to <b>failedToLoadStore.builder.d</b>--><!--MD5=[01f5cb98ebc8cd8a0c5e5852d08d3a28]
link <b>failedToLoadStore.builder.d</b> to <b>release.config</b>--><!--MD5=[87c198bd1816417cdfb195d88ef8bb11]
link <b>release.config</b> to _src_Good_store--><!--MD5=[55d05a08ea26e722e71f44a9bf6308ad]
link _src_Good_store to <b>stores/Bad.store</b>--><!--MD5=[f4cd183758d2c36bd919f5caeff49f05]
link <b>failedToLoadStore.builder.d</b> to <b>stores/Bad.store.d</b>--><!--MD5=[9267c7a855bafa06967a10cc7f204d1d]
link <b>stores/Bad.store.d</b> to <b>stores/Good.store</b>--><!--MD5=[fadb941eac5432686c5d0bd91c1e5a9c]
link <b>stores/Good.store</b> to _stores_Good_store--><!--MD5=[8b7105e86451fa7a4d433eb303782f8c]
link _stores_Good_store to _stores_Good_store_d--><!--MD5=[a3cb1390be9b4abe230e9b8145f1b743]
link <b>stores/Bad.store.d</b> to _tests_AbstractStoreTest_d--><!--MD5=[1158089aca6953bcebb9e43a8f1a99ca]
link _tests_AbstractStoreTest_d to _types_store_types_d--><script type="text/plantuml"><![CDATA[MD5=[11a4a604a5da977b9295fe0a446ac217]
@startuml

scale max 1920 width
left to right direction

skinparam nodesep 21
skinparam ranksep 42
skinparam monochrome true
skinparam shadowing false
skinparam defaultFontName Tahoma
skinparam defaultFontSize 12
skinparam roundCorner 6
skinparam dpi 150
skinparam arrowColor black
skinparam arrowThickness 0.5
skinparam packageTitleAlignment left

skinparam usecase {
  borderThickness 0.5
}

skinparam rectangle {
  borderThickness 0.5
}

skinparam component {
  borderThickness 1
}


(<b>build</b>)
(<b>build/Good.store</b>)
rectangle "<b>build/Good.store.d</b>" as _build_Good_store_d
(<b>build/index.d</b>)
(<b>errors/failedToLoadStore.builder</b>)
(<b>errors/failedToLoadStore.builder</b>)
(errors/SpruceError)
rectangle "<b>errors/SpruceError</b>" as _errors_SpruceError
rectangle "errors/SpruceError" as _errors_SpruceError
rectangle "<b>errors/SpruceError.d</b>" as _errors_SpruceError_d
rectangle "<b>errors/SpruceError.d</b>" as _errors_SpruceError_d
(<b>esm</b>)
(<b>esm/index.d</b>)
(<b>failedToLoadStore.builder.d</b>)
rectangle "plugins/store.plugin" as _plugins_store_plugin
(plugins/store.plugin)
rectangle "plugins/store.plugin" as _plugins_store_plugin
rectangle "<b>plugins/store.plugin.d</b>" as _plugins_store_plugin_d
rectangle "<b>plugins/store.plugin.d</b>" as _plugins_store_plugin_d
(<b>release.config</b>)
(<b>src</b>)
rectangle "<b>src/Good.store</b>" as _src_Good_store
(<b>stores/Bad.store</b>)
(<b>stores/Bad.store</b>)
(<b>stores/Bad.store</b>)
(<b>stores/Bad.store</b>)
(<b>stores/Bad.store.d</b>)
(<b>stores/Bad.store.d</b>)
(<b>stores/Good.store</b>)
(<b>stores/Good.store</b>)
rectangle "<b>stores/Good.store</b>" as _stores_Good_store
rectangle "<b>stores/Good.store</b>" as _stores_Good_store
rectangle "<b>stores/Good.store.d</b>" as _stores_Good_store_d
rectangle "<b>stores/Good.store.d</b>" as _stores_Good_store_d
rectangle "<b>tests/AbstractStoreTest</b>" as _tests_AbstractStoreTest
(<b>tests/AbstractStoreTest</b>)
rectangle "<b>tests/AbstractStoreTest</b>" as _tests_AbstractStoreTest
rectangle "<b>tests/AbstractStoreTest.d</b>" as _tests_AbstractStoreTest_d
rectangle "<b>tests/AbstractStoreTest.d</b>" as _tests_AbstractStoreTest_d
(types/store.types)
(types/store.types)
rectangle "types/store.types" as _types_store_types
rectangle "<b>types/store.types.d</b>" as _types_store_types_d
rectangle "<b>types/store.types.d</b>" as _types_store_types_d


(<b>build</b>) -[thickness=1]> (plugins/store.plugin)
(<b>build</b>) -[thickness=1]> (types/store.types)
(<b>build/index.d</b>) -[thickness=1]> (plugins/store.plugin)
(<b>build/index.d</b>) -[thickness=1]> (types/store.types)
(<b>esm</b>) -[thickness=1]> _plugins_store_plugin
(<b>esm</b>) -[thickness=1]> (types/store.types)
(<b>esm/index.d</b>) -[thickness=1]> _plugins_store_plugin
(<b>esm/index.d</b>) -[thickness=1]> (types/store.types)
(plugins/store.plugin) --> (errors/SpruceError)
_plugins_store_plugin --> _errors_SpruceError
_plugins_store_plugin --> _types_store_types
_plugins_store_plugin_d --[thickness=1]> (types/store.types)
(<b>src</b>) -[thickness=1]> _plugins_store_plugin
(<b>src</b>) -[thickness=1]> _types_store_types
_tests_AbstractStoreTest --[thickness=1]> _plugins_store_plugin
(<b>tests/AbstractStoreTest</b>) --[thickness=1]> (plugins/store.plugin)
_tests_AbstractStoreTest --[thickness=1]> _plugins_store_plugin

@enduml


' View and edit on https://arkit.pro
]]></script></g></svg>