<?xml version="1.0" encoding="UTF-8" standalone="no"?><svg xmlns="http://www.w3.org/2000/svg" xmlns:xlink="http://www.w3.org/1999/xlink" contentScriptType="application/ecmascript" contentStyleType="text/css" height="573px" preserveAspectRatio="none" style="width:606px;height:573px;" version="1.1" viewBox="0 0 606 573" width="606px" zoomAndPan="magnify"><defs/><g><ellipse cx="317.1274" cy="171.242" fill="#F8F8F8" rx="25.6274" ry="13.242" style="stroke: #383838; stroke-width: 0.5;"/><text fill="#000000" font-family="Tahoma, sans-serif" font-size="12" font-weight="bold" lengthAdjust="spacingAndGlyphs" textLength="32" x="301.1274" y="174.9842">build</text><ellipse cx="316.8344" cy="215.1669" fill="#F8F8F8" rx="58.8344" ry="14.1669" style="stroke: #383838; stroke-width: 0.5;"/><text fill="#000000" font-family="Tahoma, sans-serif" font-size="12" font-weight="bold" lengthAdjust="spacingAndGlyphs" textLength="85" x="274.3344" y="218.9091">build/index.d</text><ellipse cx="96.7999" cy="25.86" fill="#F8F8F8" rx="74.7999" ry="17.36" style="stroke: #383838; stroke-width: 0.5;"/><text fill="#000000" font-family="Tahoma, sans-serif" font-size="12" font-weight="bold" lengthAdjust="spacingAndGlyphs" textLength="124" x="34.7999" y="29.6022">errors/SpruceError</text><!--MD5=[0df72be079b7be722000360c8a62aa36]
entity _errors_SpruceError--><rect fill="#F8F8F8" height="34.4844" rx="3" ry="3" style="stroke: #000000; stroke-width: 0.5;" width="144" x="25" y="61"/><text fill="#000000" font-family="Tahoma, sans-serif" font-size="12" font-weight="bold" lengthAdjust="spacingAndGlyphs" textLength="124" x="35" y="83.0059">errors/SpruceError</text><!--MD5=[8f883dc3c2ef28ef82b5a7d9e72891d4]
entity _errors_SpruceError_d--><rect fill="#F8F8F8" height="34.4844" rx="3" ry="3" style="stroke: #000000; stroke-width: 0.5;" width="156" x="19" y="112"/><text fill="#000000" font-family="Tahoma, sans-serif" font-size="12" font-weight="bold" lengthAdjust="spacingAndGlyphs" textLength="136" x="29" y="134.0059">errors/SpruceError.d</text><ellipse cx="316.799" cy="310.242" fill="#F8F8F8" rx="22.799" ry="13.242" style="stroke: #383838; stroke-width: 0.5;"/><text fill="#000000" font-family="Tahoma, sans-serif" font-size="12" font-weight="bold" lengthAdjust="spacingAndGlyphs" textLength="28" x="302.799" y="313.9842">esm</text><ellipse cx="316.8275" cy="353.8655" fill="#F8F8F8" rx="57.3275" ry="13.8655" style="stroke: #383838; stroke-width: 0.5;"/><text fill="#000000" font-family="Tahoma, sans-serif" font-size="12" font-weight="bold" lengthAdjust="spacingAndGlyphs" textLength="81" x="276.3275" y="357.6077">esm/index.d</text><!--MD5=[195129bae5656306e9c5770f91e70d06]
entity _plugins_store_plugin--><rect fill="#F8F8F8" height="34.4844" rx="3" ry="3" style="stroke: #000000; stroke-width: 0.5;" width="133" x="250.5" y="528"/><text fill="#000000" font-family="Tahoma, sans-serif" font-size="12" lengthAdjust="spacingAndGlyphs" textLength="113" x="260.5" y="550.0059">plugins/store.plugin</text><ellipse cx="317.108" cy="262.9216" fill="#F8F8F8" rx="70.108" ry="16.4216" style="stroke: #383838; stroke-width: 0.5;"/><text fill="#000000" font-family="Tahoma, sans-serif" font-size="12" lengthAdjust="spacingAndGlyphs" textLength="113" x="260.608" y="266.6638">plugins/store.plugin</text><!--MD5=[bc95765a2251ada4a521bdc5772be418]
entity _plugins_store_plugin_d--><rect fill="#F8F8F8" height="34.4844" rx="3" ry="3" style="stroke: #000000; stroke-width: 0.5;" width="165" x="234.5" y="9"/><text fill="#000000" font-family="Tahoma, sans-serif" font-size="12" font-weight="bold" lengthAdjust="spacingAndGlyphs" textLength="145" x="244.5" y="31.0059">plugins/store.plugin.d</text><ellipse cx="317.2284" cy="74.9457" fill="#F8F8F8" rx="62.7284" ry="14.9457" style="stroke: #383838; stroke-width: 0.5;"/><text fill="#000000" font-family="Tahoma, sans-serif" font-size="12" font-weight="bold" lengthAdjust="spacingAndGlyphs" textLength="95" x="269.7284" y="78.6879">release.config</text><ellipse cx="316.8492" cy="447.242" fill="#F8F8F8" rx="17.8492" ry="13.242" style="stroke: #383838; stroke-width: 0.5;"/><text fill="#000000" font-family="Tahoma, sans-serif" font-size="12" font-weight="bold" lengthAdjust="spacingAndGlyphs" textLength="21" x="306.3492" y="450.9842">src</text><!--MD5=[c213d9bc1edcc8b2581642db2ac531a8]
entity _tests_AbstractStoreTest--><rect fill="#F8F8F8" height="34.4844" rx="3" ry="3" style="stroke: #000000; stroke-width: 0.5;" width="180" x="7" y="528"/><text fill="#000000" font-family="Tahoma, sans-serif" font-size="12" font-weight="bold" lengthAdjust="spacingAndGlyphs" textLength="160" x="17" y="550.0059">tests/AbstractStoreTest</text><ellipse cx="96.8136" cy="263.0627" fill="#F8F8F8" rx="90.8136" ry="20.5627" style="stroke: #383838; stroke-width: 0.5;"/><text fill="#000000" font-family="Tahoma, sans-serif" font-size="12" font-weight="bold" lengthAdjust="spacingAndGlyphs" textLength="160" x="16.8136" y="266.8049">tests/AbstractStoreTest</text><!--MD5=[637f121c25910308a7c692eb29e5ef7b]
entity _tests_AbstractStoreTest_d--><rect fill="#F8F8F8" height="34.4844" rx="3" ry="3" style="stroke: #000000; stroke-width: 0.5;" width="192" x="221" y="107"/><text fill="#000000" font-family="Tahoma, sans-serif" font-size="12" font-weight="bold" lengthAdjust="spacingAndGlyphs" textLength="172" x="231" y="129.0059">tests/AbstractStoreTest.d</text><ellipse cx="317.2352" cy="400.847" fill="#F8F8F8" rx="64.7352" ry="15.347" style="stroke: #383838; stroke-width: 0.5;"/><text fill="#000000" font-family="Tahoma, sans-serif" font-size="12" lengthAdjust="spacingAndGlyphs" textLength="100" x="267.2352" y="404.5892">types/store.types</text><!--MD5=[bd78bd62135eee4f29b6aa5f9fac634e]
entity _types_store_types--><rect fill="#F8F8F8" height="34.4844" rx="3" ry="3" style="stroke: #000000; stroke-width: 0.5;" width="120" x="257" y="477"/><text fill="#000000" font-family="Tahoma, sans-serif" font-size="12" lengthAdjust="spacingAndGlyphs" textLength="100" x="267" y="499.0059">types/store.types</text><!--MD5=[7a61d0619d728fdd332e8c5b2c8c50e5]
entity _types_store_types_d--><rect fill="#F8F8F8" height="34.4844" rx="3" ry="3" style="stroke: #000000; stroke-width: 0.5;" width="149" x="446" y="9"/><text fill="#000000" font-family="Tahoma, sans-serif" font-size="12" font-weight="bold" lengthAdjust="spacingAndGlyphs" textLength="129" x="456" y="31.0059">types/store.types.d</text><!--MD5=[293118630090a01980690659a188486e]
link <b>build</b> to plugins/store.plugin--><path d="M291.533,168.763 C264.072,167.974 221.949,171.882 204.5,200.5 C198.021,211.125 198.021,217.875 204.5,228.5 C213.367,243.043 228.391,251.772 244.622,256.932 " fill="none" id="&lt;b&gt;build&lt;/b&gt;-&gt;plugins/store.plugin" style="stroke: #000000; stroke-width: 1.0;"/><polygon fill="#000000" points="249.692,258.422,242.1852,252.0464,244.8949,257.012,239.9293,259.7217,249.692,258.422" style="stroke: #000000; stroke-width: 1.0;"/><!--MD5=[21c42f9834e13a56aee6ab1dbdd3b711]
link <b>build</b> to types/store.types--><path d="M291.533,168.763 C264.072,167.974 221.949,171.882 204.5,200.5 C185.064,232.375 185.064,336.625 204.5,368.5 C213.981,384.049 230.601,392.695 248.204,397.366 " fill="none" id="&lt;b&gt;build&lt;/b&gt;-&gt;types/store.types" style="stroke: #000000; stroke-width: 1.0;"/><polygon fill="#000000" points="253.189,398.581,245.3923,392.5634,248.3312,397.3969,243.4977,400.3359,253.189,398.581" style="stroke: #000000; stroke-width: 1.0;"/><!--MD5=[f2e633560ff1b9bd875b220266a085d5]
link <b>build/index.d</b> to plugins/store.plugin--><path d="M317,229.273 C317,233.311 317,237.348 317,241.386 " fill="none" id="&lt;b&gt;build/index.d&lt;/b&gt;-&gt;plugins/store.plugin" style="stroke: #000000; stroke-width: 1.0;"/><polygon fill="#000000" points="317,246.5,321,237.5,317,241.5,313,237.5,317,246.5" style="stroke: #000000; stroke-width: 1.0;"/><!--MD5=[b9535d1f0aa93410b2b94c28566239d4]
link <b>build/index.d</b> to types/store.types--><path d="M257.919,215.864 C236.904,219.588 215.693,228.144 204.5,246.5 C190.386,269.648 190.386,345.352 204.5,368.5 C213.981,384.049 230.601,392.695 248.204,397.366 " fill="none" id="&lt;b&gt;build/index.d&lt;/b&gt;-&gt;types/store.types" style="stroke: #000000; stroke-width: 1.0;"/><polygon fill="#000000" points="253.189,398.581,245.3923,392.5634,248.3312,397.3969,243.4977,400.3359,253.189,398.581" style="stroke: #000000; stroke-width: 1.0;"/><!--MD5=[61cf3ff30eb37fed1597c69c3653ee80]
link <b>esm</b> to _plugins_store_plugin--><path d="M293.973,307.847 C266.632,306.761 222.475,310.02 204.5,339.5 C184.602,372.134 184.602,478.8658 204.5,511.5 C213.442,526.1645 228.689,534.8042 245.122,539.7966 " fill="none" id="&lt;b&gt;esm&lt;/b&gt;-&gt;_plugins_store_plugin" style="stroke: #000000; stroke-width: 1.0;"/><polygon fill="#000000" points="250.254,541.2316,242.6645,534.9547,245.4389,539.8845,240.5091,542.6589,250.254,541.2316" style="stroke: #000000; stroke-width: 1.0;"/><!--MD5=[5fc39259f1116a32b16f277ecc0f3994]
link <b>esm</b> to types/store.types--><path d="M293.973,307.847 C266.632,306.761 222.475,310.02 204.5,339.5 C197.79,350.505 197.79,357.495 204.5,368.5 C213.981,384.049 230.601,392.695 248.204,397.366 " fill="none" id="&lt;b&gt;esm&lt;/b&gt;-&gt;types/store.types" style="stroke: #000000; stroke-width: 1.0;"/><polygon fill="#000000" points="253.189,398.581,245.3923,392.5634,248.3312,397.3969,243.4977,400.3359,253.189,398.581" style="stroke: #000000; stroke-width: 1.0;"/><!--MD5=[0eeaa8a4e323dce9fdb06b907d2cbdb3]
link <b>esm/index.d</b> to _plugins_store_plugin--><path d="M259.405,354.609 C237.91,358.19 215.956,366.711 204.5,385.5 C189.923,409.406 189.923,487.5935 204.5,511.5 C213.442,526.1645 228.689,534.8042 245.122,539.7966 " fill="none" id="&lt;b&gt;esm/index.d&lt;/b&gt;-&gt;_plugins_store_plugin" style="stroke: #000000; stroke-width: 1.0;"/><polygon fill="#000000" points="250.254,541.2316,242.6645,534.9547,245.4389,539.8845,240.5091,542.6589,250.254,541.2316" style="stroke: #000000; stroke-width: 1.0;"/><!--MD5=[34044a608fde51d994252172409e7c48]
link <b>esm/index.d</b> to types/store.types--><path d="M317,368.142 C317,372.143 317,376.143 317,380.144 " fill="none" id="&lt;b&gt;esm/index.d&lt;/b&gt;-&gt;types/store.types" style="stroke: #000000; stroke-width: 1.0;"/><polygon fill="#000000" points="317,385.211,321,376.211,317,380.211,313,376.211,317,385.211" style="stroke: #000000; stroke-width: 1.0;"/><!--MD5=[7c63fe6f0c151793333cbec88a9b8675]
link <b>src</b> to _plugins_store_plugin--><path d="M299.04,445.29 C272.446,443.905 223.674,446.054 204.5,477.5 C196.633,490.4019 196.633,498.5981 204.5,511.5 C213.442,526.1645 228.689,534.8042 245.122,539.7966 " fill="none" id="&lt;b&gt;src&lt;/b&gt;-&gt;_plugins_store_plugin" style="stroke: #000000; stroke-width: 1.0;"/><polygon fill="#000000" points="250.254,541.2316,242.6645,534.9547,245.4389,539.8845,240.5091,542.6589,250.254,541.2316" style="stroke: #000000; stroke-width: 1.0;"/><!--MD5=[f7681236263b16449c44444322c78d5e]
link <b>src</b> to _types_store_types--><path d="M317,460.012 C317,463.8462 317,467.6801 317,471.5141 " fill="none" id="&lt;b&gt;src&lt;/b&gt;-&gt;_types_store_types" style="stroke: #000000; stroke-width: 1.0;"/><polygon fill="#000000" points="317,476.7422,321,467.7422,317,471.7422,313,467.7422,317,476.7422" style="stroke: #000000; stroke-width: 1.0;"/><!--MD5=[4495e1dfaf49d4c836c27495c46ca5e6]
link _tests_AbstractStoreTest to _plugins_store_plugin--><path d="M187.298,550.912 C206.537,551.0856 226.623,551.0024 245.05,550.6625 " fill="none" id="_tests_AbstractStoreTest-&gt;_plugins_store_plugin" style="stroke: #000000; stroke-width: 1.0;"/><polygon fill="#000000" points="250.201,550.5598,241.1228,546.7406,245.202,550.6598,241.2828,554.739,250.201,550.5598" style="stroke: #000000; stroke-width: 1.0;"/><!--MD5=[4495e1dfaf49d4c836c27495c46ca5e6]
link _tests_AbstractStoreTest to _plugins_store_plugin--><path d="M187.298,538.349 C206.537,538.1538 226.623,538.2473 245.05,538.6297 " fill="none" id="_tests_AbstractStoreTest-&gt;_plugins_store_plugin-1" style="stroke: #000000; stroke-width: 1.0;"/><polygon fill="#000000" points="250.201,538.7452,241.2936,534.5431,245.2023,538.6323,241.113,542.541,250.201,538.7452" style="stroke: #000000; stroke-width: 1.0;"/><!--MD5=[5cab72ed23788fab85965703288dc21b]
link <b>tests/AbstractStoreTest</b> to plugins/store.plugin--><path d="M188.243,263 C205.97,263 224.38,263 241.521,263 " fill="none" id="&lt;b&gt;tests/AbstractStoreTest&lt;/b&gt;-&gt;plugins/store.plugin" style="stroke: #000000; stroke-width: 1.0;"/><polygon fill="#000000" points="246.797,263,237.797,259,241.797,263,237.797,267,246.797,263" style="stroke: #000000; stroke-width: 1.0;"/><!--MD5=[e43d5b3d2ea254d475815697a3593e76]
link <b>errors/SpruceError</b> to _errors_SpruceError--><!--MD5=[1402ea2a6afe6f9e2231297a77337634]
link _errors_SpruceError to _errors_SpruceError_d--><!--MD5=[3e3489bc4c9228aebbc4242a906d60ca]
link <b>errors/SpruceError</b> to _plugins_store_plugin_d--><!--MD5=[3c4ac217935a6bc78080e72ed3e8d854]
link _plugins_store_plugin_d to <b>release.config</b>--><!--MD5=[ba826d0ca3dc0aedd427cb5b03ead2a9]
link <b>release.config</b> to _tests_AbstractStoreTest_d--><!--MD5=[2ffe05cd6e6b8760b6ce92edea276c33]
link _plugins_store_plugin_d to _types_store_types_d--><script type="text/plantuml"><![CDATA[MD5=[565e375291608fedcdfa5e0e3f9453a6]
@startuml

scale max 1920 width
left to right direction

skinparam nodesep 17
skinparam ranksep 33
skinparam monochrome true
skinparam shadowing false
skinparam defaultFontName Tahoma
skinparam defaultFontSize 12
skinparam roundCorner 6
skinparam dpi 150
skinparam arrowColor black
skinparam arrowThickness 0.5
skinparam packageTitleAlignment left

skinparam usecase {
  borderThickness 0.5
}

skinparam rectangle {
  borderThickness 0.5
}

skinparam component {
  borderThickness 1
}


(<b>build</b>)
(<b>build/index.d</b>)
(<b>errors/SpruceError</b>)
rectangle "<b>errors/SpruceError</b>" as _errors_SpruceError
rectangle "<b>errors/SpruceError</b>" as _errors_SpruceError
rectangle "<b>errors/SpruceError.d</b>" as _errors_SpruceError_d
rectangle "<b>errors/SpruceError.d</b>" as _errors_SpruceError_d
(<b>esm</b>)
(<b>esm/index.d</b>)
rectangle "plugins/store.plugin" as _plugins_store_plugin
(plugins/store.plugin)
rectangle "plugins/store.plugin" as _plugins_store_plugin
rectangle "<b>plugins/store.plugin.d</b>" as _plugins_store_plugin_d
rectangle "<b>plugins/store.plugin.d</b>" as _plugins_store_plugin_d
(<b>release.config</b>)
(<b>src</b>)
rectangle "<b>tests/AbstractStoreTest</b>" as _tests_AbstractStoreTest
(<b>tests/AbstractStoreTest</b>)
rectangle "<b>tests/AbstractStoreTest</b>" as _tests_AbstractStoreTest
rectangle "<b>tests/AbstractStoreTest.d</b>" as _tests_AbstractStoreTest_d
rectangle "<b>tests/AbstractStoreTest.d</b>" as _tests_AbstractStoreTest_d
(types/store.types)
(types/store.types)
rectangle "types/store.types" as _types_store_types
rectangle "<b>types/store.types.d</b>" as _types_store_types_d
rectangle "<b>types/store.types.d</b>" as _types_store_types_d


(<b>build</b>) -[thickness=1]> (plugins/store.plugin)
(<b>build</b>) -[thickness=1]> (types/store.types)
(<b>build/index.d</b>) -[thickness=1]> (plugins/store.plugin)
(<b>build/index.d</b>) -[thickness=1]> (types/store.types)
(<b>esm</b>) -[thickness=1]> _plugins_store_plugin
(<b>esm</b>) -[thickness=1]> (types/store.types)
(<b>esm/index.d</b>) -[thickness=1]> _plugins_store_plugin
(<b>esm/index.d</b>) -[thickness=1]> (types/store.types)
(<b>src</b>) -[thickness=1]> _plugins_store_plugin
(<b>src</b>) -[thickness=1]> _types_store_types
_tests_AbstractStoreTest --[thickness=1]> _plugins_store_plugin
(<b>tests/AbstractStoreTest</b>) --[thickness=1]> (plugins/store.plugin)
_tests_AbstractStoreTest --[thickness=1]> _plugins_store_plugin

@enduml


' View and edit on https://arkit.pro
]]></script></g></svg>